<?xml version="1.0" encoding="UTF-8" standalone="no"?>
<svg
   width="593"
   height="171"
   version="1.1"
   id="svg1"
   sodipodi:docname="Luka_Modrić_signature.svg"
   inkscape:version="1.4.4 (dcaf3e7, 2026-05-05)"
   xmlns:inkscape="http://www.inkscape.org/namespaces/inkscape"
   xmlns:sodipodi="http://sodipodi.sourceforge.net/DTD/sodipodi-0.dtd"
   xmlns="http://www.w3.org/2000/svg"
   xmlns:svg="http://www.w3.org/2000/svg">
  <defs
     id="defs1" />
  <sodipodi:namedview
     id="namedview1"
     pagecolor="#ffffff"
     bordercolor="#666666"
     borderopacity="1.0"
     inkscape:showpageshadow="2"
     inkscape:pageopacity="0.0"
     inkscape:pagecheckerboard="true"
     inkscape:deskcolor="#d1d1d1"
     showgrid="false"
     inkscape:zoom="1.5918846"
     inkscape:cx="327.91322"
     inkscape:cy="74.125977"
     inkscape:window-width="1920"
     inkscape:window-height="1017"
     inkscape:window-x="1072"
     inkscape:window-y="394"
     inkscape:window-maximized="1"
     inkscape:current-layer="g1" />
  <g
     id="g1">
    <title
       id="title1">Layer 1</title>
    <path
       id="svg_20"
       d="M 404.00781 0.12890625 C 403.22765 0.14079357 402.38651 0.20490875 401.48633 0.32421875 C 398.63369 0.70116875 393.46511 2.246185 391.02344 3.453125 C 389.71511 4.098095 387.3852 4.958215 385.8457 5.359375 C 383.48268 5.978405 382.82016 6.2870269 381.56641 7.3417969 C 379.60793 8.9913969 379.37712 9.1090738 375.5918 10.433594 C 373.64937 11.113144 371.70008 12.019223 370.73047 12.695312 C 369.84113 13.314343 368.26924 14.109927 367.24023 14.460938 C 366.20962 14.811958 364.34233 15.642651 363.0918 16.306641 C 361.84126 16.970631 359.57262 18.010257 358.05078 18.617188 C 356.52895 19.225848 354.54211 20.238224 353.63672 20.871094 C 352.72972 21.503964 350.84249 22.56168 349.43945 23.21875 C 348.03641 23.87582 346.34993 24.812938 345.69336 25.298828 C 344.25821 26.362248 341.32098 27.736937 338.67383 28.585938 C 337.60951 28.928307 335.59549 29.755104 334.19727 30.427734 C 332.80065 31.100374 330.6314 32.012195 329.38086 32.453125 C 328.13032 32.894055 326.15938 33.764229 325.00195 34.386719 C 323.84452 35.009209 321.85929 35.914054 320.58789 36.396484 C 317.95197 37.397654 315.59434 38.62483 313.90234 39.875 C 313.26182 40.34878 311.57534 41.223986 310.15625 41.822266 C 308.73555 42.418816 306.61224 43.358343 305.43555 43.908203 C 304.25725 44.459803 302.75019 45.123442 302.08398 45.382812 C 301.41778 45.642182 299.68328 46.584546 298.23047 47.478516 C 296.66048 48.445106 294.47036 49.482049 292.82812 50.037109 C 291.30951 50.550659 289.4763 51.379186 288.75391 51.878906 C 288.03313 52.376896 286.24264 53.219373 284.77539 53.751953 C 281.56798 54.913933 281.22067 55.105851 279.39062 56.707031 C 278.48041 57.505891 277.41561 58.121173 276.44922 58.408203 C 272.00733 59.729263 270.99775 60.129917 268.91406 61.404297 C 267.66192 62.168577 265.77769 63.12663 264.72461 63.53125 C 263.67153 63.93587 261.86516 64.778124 260.71094 65.402344 C 259.55672 66.028294 258.13777 66.701541 257.55664 66.900391 C 255.79882 67.502131 253.7496 68.553951 251.96289 69.769531 C 251.03181 70.402401 248.989 71.372228 247.42383 71.923828 C 245.86026 72.475428 243.88437 73.305898 243.03516 73.767578 C 242.18435 74.230988 240.04515 75.090271 238.2793 75.681641 C 236.51346 76.271281 234.16695 77.204036 233.0625 77.753906 C 231.95965 78.303776 229.26652 79.526593 227.08008 80.470703 C 224.89525 81.414813 222.51237 82.512223 221.78516 82.908203 C 221.05795 83.305903 219.08436 84.016008 217.40039 84.486328 C 213.67928 85.527268 212.25787 86.115286 210.17578 87.472656 C 209.29928 88.046726 207.43729 88.908195 206.03906 89.390625 C 204.64083 89.871325 202.29434 90.767243 200.82227 91.382812 C 195.00623 93.813982 188.36726 94.267237 177.14453 92.998047 C 175.01107 92.757697 171.33775 92.433187 168.98438 92.279297 C 165.89576 92.076987 163.51049 91.723459 160.42188 91.005859 C 158.06849 90.457719 155.11772 89.858625 153.86719 89.671875 C 150.46072 89.165235 147.66142 88.351798 145.08008 87.117188 C 143.80707 86.508527 141.8746 85.631379 140.79102 85.167969 C 138.46332 84.177169 136.68863 82.581376 135.15234 80.103516 C 131.78279 74.667096 135.65597 68.975791 146.88672 62.863281 C 147.53687 62.510541 148.74058 61.730869 149.5625 61.130859 C 150.38442 60.530849 152.06895 59.495788 153.30664 58.830078 C 154.54273 58.164358 156.16668 56.999101 156.91797 56.238281 C 157.66765 55.479191 159.05712 54.437611 160.00586 53.925781 C 160.9546 53.412231 162.45266 52.363443 163.33398 51.595703 C 164.2169 50.826233 166.02893 49.565443 167.36133 48.789062 C 172.56575 45.763072 174.13069 44.770224 175.80664 43.433594 C 176.76341 42.671044 178.25987 41.655197 179.13477 41.179688 C 182.8029 39.182527 186.29992 36.041351 186.68359 34.400391 C 188.05613 28.509211 181.9381 25.112557 173.80078 27.248047 C 165.94278 29.309177 162.10307 30.903687 157.71094 33.929688 C 156.92915 34.469178 155.38041 35.355711 154.26953 35.900391 C 147.40683 39.268751 136.25842 49.050494 131.75391 55.652344 C 131.15834 56.523834 130.45133 57.433245 130.18164 57.671875 C 129.91355 57.908765 129.16452 58.879048 128.51758 59.830078 C 126.82237 62.323498 122.93467 66.075649 120.78516 67.292969 C 119.77702 67.863589 118.28954 68.921974 117.48047 69.646484 C 116.67139 70.370994 115.28723 71.363729 114.4043 71.849609 C 113.52138 72.337229 112.42661 73.042526 111.9707 73.416016 C 111.51479 73.791236 109.30938 75.128355 107.06836 76.390625 C 104.82735 77.651165 102.00707 79.405473 100.80469 80.289062 C 96.717568 83.290852 94.073523 85.335259 92.195312 86.943359 C 91.166313 87.825219 89.646699 89.024702 88.818359 89.607422 C 87.990019 90.190142 86.603894 91.227146 85.740234 91.910156 C 82.224604 94.688886 80.047945 96.357081 78.015625 97.832031 C 76.838935 98.686231 75.574641 99.739808 75.207031 100.17383 C 74.839411 100.60784 73.895975 101.40846 73.109375 101.95312 C 72.322775 102.4978 71.10616 103.51912 70.40625 104.22461 C 69.70633 104.9301 68.035056 106.18976 66.691406 107.02148 C 64.085986 108.63823 62.744071 109.6924 59.363281 112.79102 C 58.193011 113.86482 56.886347 114.93694 56.460938 115.17383 C 56.035528 115.41072 54.980494 116.2833 54.115234 117.11328 C 53.249974 117.94327 51.490585 119.25877 50.203125 120.03516 C 48.917275 120.81154 47.544387 121.73297 47.154297 122.08398 C 46.764207 122.43672 45.722764 123.21684 44.839844 123.82031 C 43.956924 124.42551 41.969738 125.9615 40.423828 127.23242 C 38.879518 128.50334 36.854565 130.16931 35.921875 130.93359 C 34.990795 131.69787 33.766242 132.57742 33.201172 132.88867 C 32.636102 133.19819 31.469472 134.15602 30.607422 135.01367 C 29.746972 135.87305 28.321469 137.03089 27.443359 137.58594 C 26.563649 138.14099 24.33968 140.13455 22.5 142.01758 C 20.66031 143.89888 18.312203 146.10746 17.283203 146.92188 C 16.252593 147.7363 15.048882 148.81736 14.607422 149.32227 C 14.165962 149.82718 12.952349 150.86418 11.912109 151.625 C 9.5025394 153.38699 3.6209094 159.95369 2.8808594 161.70703 C -0.11465062 168.80688 6.0580975 172.66245 16.242188 170.05664 C 18.115588 169.57767 20.803088 168.98862 22.210938 168.75 C 23.620397 168.50965 25.615874 168.07108 26.646484 167.77539 C 27.677094 167.48144 29.181164 167.15453 29.990234 167.05078 C 30.799314 166.94876 32.845462 166.42929 34.539062 165.89844 C 36.231063 165.36586 39.121257 164.71835 40.960938 164.45898 C 43.049447 164.16503 45.159378 163.65947 46.580078 163.11133 C 47.830618 162.6289 49.876423 161.93516 51.126953 161.57031 C 52.377493 161.20546 54.845135 160.48839 56.609375 159.97656 C 58.375215 159.46301 60.843553 158.5298 62.095703 157.90039 C 63.347843 157.27271 65.651264 156.40255 67.214844 155.9668 C 69.757654 155.25785 70.650629 154.82319 73.292969 153.00586 C 73.683059 152.73784 75.370229 152.11826 77.042969 151.62891 C 78.715699 151.13956 81.244619 150.26962 82.662109 149.69727 C 84.079599 149.1232 86.864183 148.08791 88.851562 147.39453 C 90.928832 146.66829 93.330083 145.59253 94.501953 144.85938 C 96.577623 143.56252 97.266923 143.28513 101.62695 141.98828 C 102.98825 141.58366 104.91877 140.80902 105.91406 140.26953 C 106.91096 139.72831 109.13757 138.8673 110.86328 138.35547 C 113.11393 137.68802 114.70108 136.99952 116.47656 135.91016 C 117.92616 135.02138 120.5785 133.78802 122.87891 132.93555 C 125.03805 132.13496 127.39745 131.15379 128.12305 130.75781 C 128.85026 130.36184 130.53018 129.70953 131.85938 129.30664 C 133.18696 128.90375 135.28205 128.17032 136.51172 127.67578 C 137.74299 127.17952 140.0736 126.34664 141.69336 125.82617 C 145.2732 124.6711 146.6048 124.1078 149.7207 122.42188 C 151.04508 121.70428 153.02167 120.82908 154.11328 120.47461 C 155.20329 120.12187 157.30966 119.22137 158.79297 118.47266 C 160.27788 117.72567 162.8767 116.62826 164.57031 116.03516 C 166.26231 115.44207 168.8267 114.38149 170.27148 113.67773 C 171.71465 112.97397 174.30415 111.83881 176.02344 111.15234 C 177.74273 110.46587 179.99283 109.44261 181.02344 108.87891 C 182.05244 108.31521 184.38096 107.44459 186.19336 106.94141 C 188.00736 106.43996 190.21508 105.71155 191.09961 105.32422 C 195.00212 103.61583 197.29965 103.46495 221.29102 103.33008 C 233.13661 103.26264 243.09335 103.14182 243.41602 103.06055 C 243.74029 102.97928 247.95373 102.71953 252.7793 102.48438 C 264.99571 101.88956 270.29328 101.53131 272.21484 101.16992 C 273.12184 100.99874 277.53499 100.74837 282.02344 100.61523 C 288.34676 100.42848 290.51648 100.26847 291.65625 99.898438 C 292.62425 99.583737 294.91515 99.328714 298.3457 99.152344 C 309.78354 98.566164 312.48245 98.079892 313.49219 96.419922 C 314.37832 94.965712 312.91803 90.835637 311.1875 89.898438 C 308.50503 88.447688 299.4512 88.120369 292.72656 89.230469 C 291.32833 89.460449 289.34311 89.657599 288.3125 89.667969 C 286.54184 89.683529 285.13981 89.835529 276.80664 90.917969 C 274.89472 91.166969 271.28198 91.505429 268.7793 91.667969 C 266.27823 91.832239 262.8463 92.155019 261.1543 92.386719 C 259.26967 92.646089 255.64377 92.815579 251.79102 92.824219 C 248.33318 92.832869 244.65986 92.981377 243.63086 93.154297 C 240.78304 93.633267 228.72889 93.513941 226.92773 92.988281 C 224.67227 92.331211 223.83182 90.810083 225.36328 90.158203 C 225.5511 90.076933 226.76541 89.157681 228.0625 88.113281 C 230.46565 86.176641 231.87971 85.524046 235.33594 84.759766 C 237.13389 84.363796 237.68695 84.095857 239.64062 82.679688 C 240.3887 82.136737 242.01265 81.259366 243.25195 80.728516 C 244.48964 80.197666 246.4318 79.267086 247.56836 78.660156 C 248.70331 78.053226 250.6921 77.229285 251.98438 76.828125 C 253.27666 76.428695 256.07944 75.210231 258.21289 74.119141 C 260.34635 73.029781 262.57457 71.978816 263.16211 71.785156 C 263.75126 71.591496 266.03879 70.528748 268.24609 69.423828 C 270.45339 68.318908 273.34164 67.038075 274.66602 66.578125 C 275.9904 66.118175 277.91666 65.359671 278.94727 64.894531 C 279.97627 64.427661 281.96506 63.564696 283.36328 62.978516 C 284.7599 62.390606 286.86627 61.357741 288.04297 60.681641 C 289.22127 60.003821 291.34353 59.114888 292.75781 58.705078 C 296.07117 57.747138 296.83385 57.390189 299.28516 55.667969 C 300.39925 54.884669 301.99831 53.968273 302.83789 53.632812 C 303.67747 53.295633 305.08778 52.518137 305.9707 51.904297 C 307.82965 50.610897 308.24957 50.424617 311.54688 49.435547 C 312.89373 49.030927 315.10871 48.11693 316.4668 47.40625 C 317.82329 46.69384 319.79687 45.797486 320.85156 45.410156 C 321.90625 45.024556 323.68579 44.131494 324.80469 43.427734 C 326.57214 42.315894 332.54811 40.091797 333.76172 40.091797 C 333.9367 40.091797 335.00002 39.500347 336.12695 38.779297 C 337.25227 38.056517 339.53646 36.909796 341.20117 36.228516 C 342.86748 35.547236 344.83417 34.586783 345.57422 34.095703 C 346.31266 33.606353 347.99914 32.755171 349.32031 32.207031 C 350.64148 31.657161 352.44324 30.858284 353.32617 30.427734 C 354.20909 29.998904 356.82313 28.954469 359.13477 28.105469 C 361.44642 27.256459 364.27764 26.054577 365.42383 25.435547 C 366.57002 24.814787 368.85525 23.709946 370.50391 22.978516 C 372.15096 22.247086 374.1166 21.256324 374.87109 20.777344 C 376.54543 19.713924 377.57885 19.227836 380.34961 18.197266 C 381.52791 17.759796 383.63303 16.882414 385.03125 16.246094 C 386.42948 15.611504 388.41666 14.795207 389.44727 14.435547 C 390.47788 14.077617 392.46311 13.157081 393.86133 12.394531 C 395.81339 11.329381 397.0534 10.874524 399.21094 10.433594 C 409.28908 8.3724637 409.06093 8.4564113 409.95508 6.5820312 C 411.89489 2.524175 409.46897 0.04569498 404.00781 0.12890625 z M 586.15039 7.0136719 C 585.0884 6.9535509 583.97836 7.3433794 582.92969 8.2207031 C 581.74337 9.2132331 580.95575 9.6090519 579.36328 10.013672 C 578.23956 10.298982 576.58327 10.955646 575.6875 11.472656 C 574.79013 11.989666 573.33409 12.771281 572.45117 13.207031 C 571.56825 13.644501 569.34163 14.826341 567.50195 15.837891 C 565.66226 16.847711 563.13531 17.9894 561.88477 18.375 C 558.43656 19.43323 556.585 20.192558 554.52539 21.392578 C 553.49639 21.992588 551.83639 22.81413 550.83789 23.21875 C 549.84099 23.62337 548.21543 24.391704 547.22656 24.927734 C 546.23929 25.462034 543.74481 26.582352 541.68359 27.414062 C 539.62398 28.247512 537.27392 29.28474 536.46484 29.71875 C 535.65576 30.15276 534.06625 30.925224 532.92969 31.433594 C 531.79313 31.940234 530.10664 32.88455 529.18359 33.53125 C 528.2493 34.18486 525.89796 35.326912 523.89453 36.101562 C 521.51867 37.019733 519.68917 37.940286 518.54297 38.791016 C 517.42728 39.619276 515.79335 40.447729 513.99219 41.099609 C 512.44788 41.659849 510.52002 42.553591 509.71094 43.087891 C 508.90026 43.622191 507.2763 44.585276 506.09961 45.228516 C 504.92131 45.871756 503.23644 46.923166 502.35352 47.566406 C 501.4706 48.209646 499.79702 49.075691 498.63477 49.494141 C 497.47092 49.910861 495.58439 50.864338 494.44141 51.611328 C 493.29843 52.360048 491.05891 53.453329 489.46484 54.042969 C 487.87077 54.632609 485.769 55.621194 484.79297 56.240234 C 483.66444 56.956094 481.90775 57.692606 479.97656 58.259766 C 478.30383 58.750846 475.06861 59.720449 472.78906 60.412109 C 470.50791 61.103769 467.25841 62.074043 465.56641 62.570312 C 463.87281 63.064842 461.28457 64.032503 459.8125 64.720703 C 456.5778 66.233703 455.72992 66.486293 452.45508 66.908203 C 449.10159 67.340483 444.71679 68.553341 441.08398 70.050781 C 439.46422 70.718231 436.36304 71.769855 434.18945 72.390625 C 432.01586 73.009655 428.86539 74.102276 427.18945 74.816406 C 425.51351 75.530536 424.06081 76.113281 423.96289 76.113281 C 423.86336 76.113281 422.2583 76.87876 420.39453 77.8125 C 417.48892 79.26844 416.52725 79.600009 413.66016 80.130859 C 408.11863 81.156239 406.80359 81.857897 405.36523 84.560547 C 404.37475 86.419377 404.35742 87.336866 405.29492 88.535156 C 409.07382 93.373286 417.70211 94.753399 432.25586 92.849609 C 435.78754 92.386199 440.17985 91.861471 442.01953 91.681641 C 443.85922 91.501811 446.50803 91.174678 447.90625 90.955078 C 449.30287 90.737208 452.91561 90.347707 455.93359 90.091797 C 467.42119 89.114837 471.9745 87.612407 473.56055 84.273438 C 475.0567 81.126407 471.27962 78.304642 464.76367 77.701172 C 460.70705 77.324222 457.43699 75.849884 457.58789 74.464844 C 457.70829 73.347824 458.74536 72.833201 462.88867 71.832031 C 464.87444 71.351331 467.66858 70.432079 469.0957 69.787109 C 470.52282 69.142139 473.72132 68.037744 476.20312 67.333984 C 478.68493 66.631954 481.66923 65.655579 482.83789 65.167969 C 484.00656 64.680349 486.40799 63.88695 488.17383 63.40625 C 490.39237 62.80278 492.0866 62.126104 493.6582 61.214844 C 494.90874 60.488604 496.98702 59.471865 498.2793 58.953125 C 499.74174 58.366945 501.02277 57.628284 501.67773 56.990234 C 502.85763 55.840354 504.14038 55.078168 506.41992 54.173828 C 507.27395 53.834918 508.75417 52.939224 509.71094 52.183594 C 510.6661 51.427964 512.64693 50.276434 514.10938 49.621094 C 515.57182 48.967484 517.3494 48.044316 518.06055 47.572266 C 518.7717 47.101936 520.70555 46.21105 522.35742 45.59375 C 524.00928 44.97472 526.1448 44.074004 527.10156 43.589844 C 528.05833 43.105684 530.22597 42.314461 531.91797 41.832031 C 533.76247 41.306371 535.94788 40.427162 537.375 39.638672 C 538.68493 38.914162 540.97246 37.802559 542.45898 37.167969 C 543.9455 36.531649 545.88466 35.582078 546.76758 35.054688 C 547.6505 34.529027 549.27606 33.811734 550.37891 33.458984 C 551.48336 33.107964 553.6494 32.239531 555.19531 31.525391 C 556.73962 30.811261 560.13147 29.470012 562.73047 28.544922 C 565.32947 27.619832 568.52001 26.292543 569.82031 25.595703 C 571.12061 24.897133 573.02604 23.982457 574.05664 23.560547 C 575.08725 23.138637 576.65224 22.339993 577.53516 21.783203 C 579.06823 20.818343 581.92546 19.28031 584.22266 18.1875 C 585.16979 17.73792 587.55746 15.997883 589.79688 14.126953 C 590.94146 13.170743 591.14419 12.309576 590.55664 10.884766 C 589.55733 8.4628906 587.92037 7.1138735 586.15039 7.0136719 z M 539.97656 72.158203 C 538.69209 72.085985 537.38884 72.198904 536.06445 72.498047 C 522.04206 75.667557 514.0757 79.944919 510.54883 86.199219 C 508.27732 90.228119 513.01928 96.476387 520.80664 99.716797 C 525.94684 101.85402 528.28919 101.91105 533.92383 100.0332 C 535.3959 99.542123 538.82622 98.678934 541.54883 98.115234 C 549.34261 96.500214 559.10445 93.541051 561.75 91.988281 C 562.48684 91.556001 564.33928 90.637419 565.86914 89.949219 C 567.399 89.259289 569.14445 88.266341 569.74805 87.744141 C 570.35165 87.220211 571.52288 86.277624 572.34961 85.646484 C 575.41094 83.313874 576.8334 79.951144 575.94727 77.146484 C 574.09474 71.279514 570.64834 70.879574 566.02344 75.996094 C 563.39234 78.907964 561.44052 80.165069 558.00195 81.167969 L 556.25 81.679688 L 554.86328 80.986328 C 554.06062 80.583438 552.45508 79.261194 551.04883 77.839844 C 547.51032 74.264414 543.82999 72.374857 539.97656 72.158203 z M 118.96094 81.242188 C 119.63572 81.233205 120.39947 81.534365 121.4375 82.119141 C 122.33647 82.625781 123.72988 83.962651 125.53906 86.056641 C 128.99208 90.050951 132.00439 92.773467 134.71094 94.341797 C 140.66664 97.793157 139.14069 97.216194 149.31836 99.865234 C 152.62851 100.72807 156.72471 101.70272 158.41992 102.03125 C 164.79782 103.26931 166.26932 104.5646 163.23047 106.26953 C 161.14678 107.44016 155.1173 110.32416 154 110.68555 C 153.41246 110.87576 151.36666 111.86653 149.45312 112.88672 C 146.40786 114.51211 145.50142 114.84781 142.18164 115.58789 C 139.34345 116.21903 137.86262 116.71785 136.29102 117.57031 C 135.1352 118.19453 133.13972 119.04377 131.85547 119.45703 C 130.57122 119.87029 128.46715 120.54572 127.17969 120.95898 C 125.89223 121.37224 124.38656 121.95912 123.83594 122.26172 C 122.42648 123.03465 114.82393 125.87263 112.27148 126.57812 C 109.6773 127.29399 103.7534 129.93736 101.56055 131.35352 C 100.67763 131.92414 98.751367 132.87565 97.279297 133.46875 C 95.807227 134.06012 93.041169 135.22471 91.130859 136.05469 C 89.135459 136.92099 86.374138 137.85575 84.648438 138.25 C 82.994968 138.62695 80.404778 139.44129 78.892578 140.05859 C 77.380378 140.67589 75.300484 141.46014 74.271484 141.80078 C 73.240874 142.13969 71.187131 143.06285 69.707031 143.84961 C 67.799921 144.86634 65.821843 145.61241 62.908203 146.41992 C 60.419973 147.10812 57.895156 148.02632 56.509766 148.74219 C 55.012016 149.51684 52.874851 150.26998 50.332031 150.92188 C 48.193761 151.46829 45.061141 152.42371 43.369141 153.04102 C 36.869241 155.41859 32.065603 155.66033 31.070312 153.65625 C 30.548582 152.60493 32.638754 148.97401 34.964844 146.88867 C 35.833314 146.10883 37.208498 144.79333 38.017578 143.9668 C 38.826658 143.13854 40.01413 142.11264 40.65625 141.68555 C 41.29837 141.25845 42.321267 140.42077 42.929688 139.82422 C 43.538097 139.22767 44.727169 138.26938 45.568359 137.69531 C 46.411149 137.12124 47.253586 136.38126 47.441406 136.05273 C 47.629226 135.72246 48.806101 134.69462 50.056641 133.76953 C 51.307181 132.84444 53.070476 131.37975 53.972656 130.51172 C 56.204036 128.36586 63.582771 122.37574 65.957031 120.7832 C 67.998991 119.41545 74.33947 114.21392 74.96875 113.39258 C 75.51937 112.67499 80.930171 108.94947 83.519531 107.50391 C 84.760441 106.81052 86.359506 105.659 87.072266 104.94141 C 87.785026 104.22382 89.128771 103.11897 90.056641 102.48438 C 90.984511 101.84978 92.987926 100.19056 94.509766 98.796875 C 96.033206 97.403185 98.302537 95.602209 99.554688 94.792969 C 100.80523 93.985459 102.55067 92.74193 103.43359 92.03125 C 104.31651 91.32057 105.85432 90.311039 106.84961 89.787109 C 107.8449 89.263179 109.40159 88.23488 110.30859 87.5 C 111.21559 86.76512 112.7488 85.664844 113.7168 85.052734 C 114.6832 84.442344 115.89486 83.463133 116.41016 82.876953 C 117.37365 81.778841 118.09336 81.253737 118.96094 81.242188 z M 536.45508 83.451172 A 4.88024 9.8168097 82.96944 0 1 544.25391 87.238281 A 4.88024 9.8168097 82.96944 0 1 535.10742 93.283203 A 4.88024 9.8168097 82.96944 0 1 524.76758 89.642578 A 4.88024 9.8168097 82.96944 0 1 533.91211 83.597656 A 4.88024 9.8168097 82.96944 0 1 536.45508 83.451172 z M 366.89648 84.554688 C 363.5775 84.515997 359.8612 84.625488 357.74219 84.908203 C 356.19628 85.113973 353.36665 85.294987 351.45312 85.310547 C 343.14083 85.381437 339.73462 86.41062 338.50977 89.21875 C 337.47274 91.59113 337.86786 92.891054 340.25977 94.990234 C 343.25849 97.621984 343.99414 97.718678 355.90234 97.054688 L 363.56055 96.628906 L 365.5332 95.695312 C 366.9234 95.036513 368.17915 94.688312 369.78125 94.513672 C 371.03179 94.377072 372.45799 94.123859 372.94922 93.949219 C 376.85173 92.565909 377.28439 87.23096 373.66602 85.09375 C 373.13627 84.780775 370.21546 84.593378 366.89648 84.554688 z " />
  </g>
</svg>
