<?xml version="1.0" encoding="UTF-8" standalone="no"?>
<!-- Created with Inkscape (http://www.inkscape.org/) -->
<svg
   xmlns:dc="http://purl.org/dc/elements/1.1/"
   xmlns:cc="http://web.resource.org/cc/"
   xmlns:rdf="http://www.w3.org/1999/02/22-rdf-syntax-ns#"
   xmlns:svg="http://www.w3.org/2000/svg"
   xmlns="http://www.w3.org/2000/svg"
   xmlns:xlink="http://www.w3.org/1999/xlink"
   xmlns:sodipodi="http://sodipodi.sourceforge.net/DTD/sodipodi-0.dtd"
   xmlns:inkscape="http://www.inkscape.org/namespaces/inkscape"
   width="534"
   height="738"
   id="svg2"
   sodipodi:version="0.32"
   inkscape:version="0.45.1"
   sodipodi:docbase="C:\Documents and Settings\Kang\My Documents\My Pictures\Football"
   sodipodi:docname="AS Monaco V FC Porto.svg"
   version="1.0"
   inkscape:output_extension="org.inkscape.output.svg.inkscape">
  <defs
     id="defs4">
    <marker
       inkscape:stockid="RazorWire"
       id="RazorWire"
       refX="0"
       refY="0"
       orient="auto">
       style=&quot;overflow:visible&quot;&gt;
      <path
   id="path3756"
   transform="scale(0.8,0.8)"
   style="fill:#808080;fill-opacity:1;fill-rule:evenodd;stroke:#000000;stroke-width:0.1pt"
   d="M 0.022727273,-0.74009011 L 0.022727273,0.69740989 L -7.7585227,3.0099099 L 10.678977,3.0099099 L 3.4914773,0.69740989 L 3.4914773,-0.74009011 L 10.741477,-2.8963401 L -7.7272727,-2.8963401 L 0.022727273,-0.74009011 z " />
</marker>
    <linearGradient
       id="linearGradient3076">
      <stop
         style="stop-color:#ff0a0a;stop-opacity:1;"
         offset="0"
         id="stop3078" />
      <stop
         id="stop3084"
         offset="0.33000001"
         style="stop-color:#ff0a0a;stop-opacity:1;" />
      <stop
         style="stop-color:#ffffff;stop-opacity:1;"
         offset="0.33000001"
         id="stop3086" />
      <stop
         id="stop3088"
         offset="0.66000003"
         style="stop-color:#ffffff;stop-opacity:1;" />
      <stop
         style="stop-color:#ffff00;stop-opacity:1;"
         offset="0.66000003"
         id="stop3090" />
      <stop
         style="stop-color:#ffff00;stop-opacity:1;"
         offset="1"
         id="stop3080" />
    </linearGradient>
    <linearGradient
       inkscape:collect="always"
       xlink:href="#linearGradient3076"
       id="linearGradient3136"
       gradientUnits="userSpaceOnUse"
       x1="24.566006"
       y1="168.72964"
       x2="42.667271"
       y2="168.72964"
       gradientTransform="translate(0,1.131285)" />
  </defs>
  <sodipodi:namedview
     id="base"
     pagecolor="#ffffff"
     bordercolor="#666666"
     borderopacity="1.0"
     inkscape:pageopacity="0.0"
     inkscape:pageshadow="2"
     inkscape:zoom="1.319508"
     inkscape:cx="267"
     inkscape:cy="146.88978"
     inkscape:document-units="px"
     inkscape:current-layer="layer2"
     inkscape:window-width="744"
     inkscape:window-height="771"
     inkscape:window-x="42"
     inkscape:window-y="117"
     inkscape:guide-points="true"
     showgrid="true" />
  <metadata
     id="metadata7">
    <rdf:RDF>
      <cc:Work
         rdf:about="">
        <dc:format>image/svg+xml</dc:format>
        <dc:type
           rdf:resource="http://purl.org/dc/dcmitype/StillImage" />
      </cc:Work>
    </rdf:RDF>
  </metadata>
  <g
     inkscape:label="Layer 1"
     inkscape:groupmode="layer"
     id="layer1"
     style="fill-opacity:0.5"
     sodipodi:insensitive="true">
    <rect
       style="fill:#009d00;fill-rule:evenodd;stroke:none;stroke-width:2.5;stroke-linecap:butt;stroke-linejoin:round;stroke-miterlimit:4;stroke-dasharray:none;stroke-dashoffset:0;stroke-opacity:1"
       id="rect1317"
       width="737.99988"
       height="533.99994"
       x="-738"
       y="3.509668e-005"
       rx="2.5634737"
       ry="2.5538738"
       transform="matrix(0,-1,1,0,0,0)" />
    <g
       id="g4041"
       style="stroke:#ffffff;stroke-width:1.5;stroke-miterlimit:4;stroke-dasharray:none;stroke-opacity:0.62921352"
       transform="matrix(0,-1.509164,1.506335,0,-115.6011,876.1191)">
      <path
         id="path2194"
         d="M 118.19246,416.99231 L 118.19246,90.425866 L 552.70347,91.109059 L 553.38666,416.99231 L 118.19246,416.99231 z "
         style="fill:none;fill-opacity:0.75;fill-rule:evenodd;stroke:#ffffff;stroke-width:1.5;stroke-linecap:butt;stroke-linejoin:miter;stroke-miterlimit:4;stroke-dasharray:none;stroke-opacity:0.62921352" />
      <path
         transform="matrix(0.952617,0,0,0.916433,15.58528,21.60032)"
         d="M 370.97403 254.39229 A 34.842865 35.526058 0 1 1  301.2883,254.39229 A 34.842865 35.526058 0 1 1  370.97403 254.39229 z"
         sodipodi:ry="35.526058"
         sodipodi:rx="34.842865"
         sodipodi:cy="254.39229"
         sodipodi:cx="336.13116"
         id="path2212"
         style="fill:none;fill-opacity:1;fill-rule:evenodd;stroke:#ffffff;stroke-width:1.60539436;stroke-linecap:butt;stroke-linejoin:round;stroke-miterlimit:4;stroke-dasharray:none;stroke-dashoffset:0;stroke-opacity:0.62921352"
         sodipodi:type="arc" />
      <path
         sodipodi:nodetypes="ccccc"
         id="path2196"
         d="M 117.96294,327.15238 L 178.441,327.15238 L 178.441,181.63218 L 118.31998,181.63218 L 118.31998,181.63218"
         style="fill:none;fill-opacity:0.75;fill-rule:evenodd;stroke:#ffffff;stroke-width:1.5;stroke-linecap:butt;stroke-linejoin:miter;stroke-miterlimit:4;stroke-dasharray:none;stroke-opacity:0.62921352" />
      <path
         sodipodi:nodetypes="cccc"
         id="path2198"
         d="M 118.4324,219.89101 L 139.49897,219.89101 L 138.81578,286.84397 L 117.63679,286.84396"
         style="fill:none;fill-opacity:0.75;fill-rule:evenodd;stroke:#ffffff;stroke-width:1.5;stroke-linecap:butt;stroke-linejoin:miter;stroke-miterlimit:4;stroke-dasharray:none;stroke-opacity:0.62921352" />
      <path
         sodipodi:nodetypes="cccc"
         id="path2200"
         d="M 118.31998,240.38682 L 107.38888,240.38682 L 107.38888,267.03136 L 118.31998,267.03135"
         style="fill:none;fill-opacity:0.75;fill-rule:evenodd;stroke:#ffffff;stroke-width:1.5;stroke-linecap:butt;stroke-linejoin:miter;stroke-miterlimit:4;stroke-dasharray:none;stroke-opacity:0.62921352" />
      <path
         sodipodi:nodetypes="cc"
         id="path2206"
         d="M 178.32858,279.68588 C 197.458,268.58399 196.69325,238.58186 178.24704,227.65076"
         style="fill:none;fill-opacity:0.75;fill-rule:evenodd;stroke:#ffffff;stroke-width:1.5;stroke-linecap:butt;stroke-linejoin:miter;stroke-miterlimit:4;stroke-dasharray:none;stroke-opacity:0.62921352" />
      <path
         sodipodi:nodetypes="cccc"
         id="path3091"
         d="M 553.15787,327.23393 L 493.82135,327.15239 L 493.82135,181.63219 L 552.88237,181.63219"
         style="fill:none;fill-opacity:0.75;fill-rule:evenodd;stroke:#ffffff;stroke-width:1.5;stroke-linecap:butt;stroke-linejoin:miter;stroke-miterlimit:4;stroke-dasharray:none;stroke-opacity:0.62921352" />
      <path
         sodipodi:nodetypes="cccc"
         id="path3093"
         d="M 553.25918,219.89102 L 532.76338,219.89102 L 533.44657,286.84398 L 553.15787,286.84397"
         style="fill:none;fill-opacity:0.75;fill-rule:evenodd;stroke:#ffffff;stroke-width:1.5;stroke-linecap:butt;stroke-linejoin:miter;stroke-miterlimit:4;stroke-dasharray:none;stroke-opacity:0.62921352" />
      <path
         sodipodi:nodetypes="cccc"
         id="path3095"
         d="M 552.96391,240.38683 L 564.87347,240.38683 L 564.87347,267.03137 L 553.20852,267.03136"
         style="fill:none;fill-opacity:0.75;fill-rule:evenodd;stroke:#ffffff;stroke-width:1.5;stroke-linecap:butt;stroke-linejoin:miter;stroke-miterlimit:4;stroke-dasharray:none;stroke-opacity:0.62921352" />
      <path
         sodipodi:nodetypes="cc"
         id="path3097"
         d="M 493.68916,279.68589 C 474.55974,268.584 475.32448,238.98956 493.77069,228.05846"
         style="fill:none;fill-opacity:0.75;fill-rule:evenodd;stroke:#ffffff;stroke-width:1.5;stroke-linecap:butt;stroke-linejoin:miter;stroke-miterlimit:4;stroke-dasharray:none;stroke-opacity:0.62921352" />
      <path
         id="path3107"
         d="M 336.13116,90.425866 L 336.13116,416.30912 L 336.13116,416.30912"
         style="fill:none;fill-opacity:0.75;fill-rule:evenodd;stroke:#ffffff;stroke-width:1.5;stroke-linecap:butt;stroke-linejoin:miter;stroke-miterlimit:4;stroke-dasharray:none;stroke-opacity:0.62921352" />
      <path
         sodipodi:nodetypes="cs"
         id="path3117"
         d="M 118.34857,95.731078 C 118.34857,95.731078 122.38844,94.767442 123.38913,90.542267"
         style="fill:none;fill-opacity:0.75;fill-rule:evenodd;stroke:#ffffff;stroke-width:1.5;stroke-linecap:butt;stroke-linejoin:miter;stroke-miterlimit:4;stroke-dasharray:none;stroke-opacity:0.62921352" />
      <path
         sodipodi:nodetypes="cs"
         id="path3120"
         d="M 123.06916,417.24402 C 123.06916,417.24402 122.10552,413.20416 117.88035,412.20346"
         style="fill:none;fill-opacity:0.75;fill-rule:evenodd;stroke:#ffffff;stroke-width:1.5;stroke-linecap:butt;stroke-linejoin:miter;stroke-miterlimit:4;stroke-dasharray:none;stroke-opacity:0.62921352" />
      <path
         sodipodi:nodetypes="cs"
         id="path3122"
         d="M 553.14946,411.81092 C 553.14946,411.81092 549.10959,412.77456 548.1089,416.99973"
         style="fill:none;fill-opacity:0.75;fill-rule:evenodd;stroke:#ffffff;stroke-width:1.5;stroke-linecap:butt;stroke-linejoin:miter;stroke-miterlimit:4;stroke-dasharray:none;stroke-opacity:0.62921352" />
      <path
         sodipodi:nodetypes="cs"
         id="path3124"
         d="M 547.05631,91.357379 C 547.05631,91.357379 548.01995,95.397249 552.24513,96.397939"
         style="fill:none;fill-opacity:0.75;fill-rule:evenodd;stroke:#ffffff;stroke-width:1.5;stroke-linecap:butt;stroke-linejoin:miter;stroke-miterlimit:4;stroke-dasharray:none;stroke-opacity:0.62921352" />
      <path
         d="M 514.91535 253.57072 A 1.0599999 1.3453845 0 1 1  512.79535,253.57072 A 1.0599999 1.3453845 0 1 1  514.91535 253.57072 z"
         sodipodi:ry="1.3453845"
         sodipodi:rx="1.0599999"
         sodipodi:cy="253.57072"
         sodipodi:cx="513.85535"
         id="path3126"
         style="fill:none;fill-opacity:1;fill-rule:evenodd;stroke:#ffffff;stroke-width:1.5;stroke-linecap:butt;stroke-linejoin:round;stroke-miterlimit:4;stroke-dasharray:none;stroke-dashoffset:0;stroke-opacity:0.62921352"
         sodipodi:type="arc" />
      <path
         d="M 159.65229 253.44841 A 1.4676921 1.3046153 0 1 1  156.71691,253.44841 A 1.4676921 1.3046153 0 1 1  159.65229 253.44841 z"
         sodipodi:ry="1.3046153"
         sodipodi:rx="1.4676921"
         sodipodi:cy="253.44841"
         sodipodi:cx="158.1846"
         id="path3128"
         style="fill:none;fill-opacity:1;fill-rule:evenodd;stroke:#ffffff;stroke-width:1.5;stroke-linecap:butt;stroke-linejoin:round;stroke-miterlimit:4;stroke-dasharray:none;stroke-dashoffset:0;stroke-opacity:0.62921352"
         sodipodi:type="arc" />
      <path
         transform="translate(-0.683193,0)"
         d="M 337.49755 253.02589 A 1.3663868 1.3663868 0 1 1  334.76478,253.02589 A 1.3663868 1.3663868 0 1 1  337.49755 253.02589 z"
         sodipodi:ry="1.3663868"
         sodipodi:rx="1.3663868"
         sodipodi:cy="253.02589"
         sodipodi:cx="336.13116"
         id="path3130"
         style="fill:none;fill-opacity:1;fill-rule:evenodd;stroke:#ffffff;stroke-width:1.5;stroke-linecap:butt;stroke-linejoin:round;stroke-miterlimit:4;stroke-dasharray:none;stroke-dashoffset:0;stroke-opacity:0.62921352"
         sodipodi:type="arc" />
    </g>
  </g>
  <g
     inkscape:groupmode="layer"
     id="layer2"
     inkscape:label="Players"
     transform="matrix(0,-1,1,0,-75.24466,404.0203)">
    <g
       id="g1457"
       style="fill:#00b8f8;fill-opacity:1">
      <path
         sodipodi:nodetypes="cccccccccccccc"
         id="path1471"
         d="M -267.79597,322.90416 L -262.14564,331.15611 L -262.14564,334.17187 L -268.00086,339.99463 L -262.14564,345.77053 L -262.14564,348.78628 L -267.99479,357.25352 L -273.56484,354.6025 L -270.84464,348.78628 L -291.10937,348.72001 L -291.04309,331.22239 L -270.84464,331.22239 L -273.46275,325.55519 L -267.79597,322.90416 z "
         style="fill:#00b8f8;fill-opacity:1;fill-rule:evenodd;stroke:#000000;stroke-width:0.57993299px;stroke-linecap:butt;stroke-linejoin:miter;stroke-opacity:1" />
      <path
         id="path1485"
         d="M -262.14564,334.17187 C -263.30551,339.9712 -263.30551,339.9712 -263.30551,339.9712 L -262.14564,345.77053"
         style="fill:#00b8f8;fill-opacity:1;fill-rule:evenodd;stroke:#000000;stroke-width:0.57993299px;stroke-linecap:butt;stroke-linejoin:miter;stroke-opacity:1" />
    </g>
    <text
       xml:space="preserve"
       style="font-size:16px;font-style:normal;font-variant:normal;font-weight:normal;font-stretch:normal;text-align:center;line-height:100%;writing-mode:lr-tb;text-anchor:middle;fill:#000000;fill-opacity:1;stroke:none;stroke-width:1px;stroke-linecap:butt;stroke-linejoin:miter;stroke-opacity:1;font-family:Verdana"
       x="339.31888"
       y="316.13596"
       id="text6173"
       sodipodi:linespacing="100%"
       transform="matrix(0,1,-1,0,0,0)"><tspan
         sodipodi:role="line"
         x="339.31888"
         y="316.13596"
         id="tspan4157">Baía</tspan></text>
    <g
       style="fill:#0054dc;fill-opacity:1"
       transform="matrix(0.588968,0,0,0.581043,-109.40974,246.87625)"
       id="use8001">
      <path
         style="fill:#0054dc;fill-opacity:1;fill-rule:evenodd;stroke:#000000;stroke-width:1px;stroke-linecap:butt;stroke-linejoin:miter;stroke-opacity:1"
         d="M -112.72276,230.81533 L -102.9797,245.04448 L -102.9797,250.24466 L -113.07606,260.28506 L -102.9797,270.24466 L -102.9797,275.44484 L -113.0656,290.04522 L -122.67024,285.47396 L -117.9797,275.44484 L -152.92293,275.33056 L -152.80864,245.15876 L -117.9797,245.15876 L -122.4942,235.3866 L -112.72276,230.81533 z "
         id="path8354"
         sodipodi:nodetypes="cccccccccccccc" />
      <path
         style="fill:#0054dc;fill-opacity:1;fill-rule:evenodd;stroke:#000000;stroke-width:1px;stroke-linecap:butt;stroke-linejoin:miter;stroke-opacity:1"
         d="M -102.9797,250.24466 C -104.9797,260.24466 -104.9797,260.24466 -104.9797,260.24466 L -102.9797,270.24466"
         id="path8356" />
    </g>
    <use
       x="0"
       y="0"
       xlink:href="#use8001"
       id="use8003"
       transform="translate(-4.3652486e-5,-113.17928)"
       width="534"
       height="738"
       style="fill:#0054dc;fill-opacity:1" />
    <g
       transform="matrix(0.588968,0,0,0.581043,266.37951,189.86976)"
       id="g8141"
       style="fill:#ffffff;fill-opacity:1">
      <path
         style="fill:#ffffff;fill-opacity:1;fill-rule:evenodd;stroke:#000000;stroke-width:1px;stroke-linecap:butt;stroke-linejoin:miter;stroke-opacity:1"
         d="M -112.72276,230.81533 L -102.9797,245.04448 L -102.9797,250.24466 L -113.07606,260.28506 L -102.9797,270.24466 L -102.9797,275.44484 L -113.0656,290.04522 L -122.67024,285.47396 L -117.9797,275.44484 L -152.92293,275.33056 L -152.80864,245.15876 L -117.9797,245.15876 L -122.4942,235.3866 L -112.72276,230.81533 z "
         id="path8143"
         sodipodi:nodetypes="cccccccccccccc" />
      <path
         style="fill:#ffffff;fill-opacity:1;fill-rule:evenodd;stroke:#000000;stroke-width:1px;stroke-linecap:butt;stroke-linejoin:miter;stroke-opacity:1"
         d="M -102.9797,250.24466 C -104.9797,260.24466 -104.9797,260.24466 -104.9797,260.24466 L -102.9797,270.24466"
         id="path8145" />
    </g>
    <text
       xml:space="preserve"
       style="font-size:16px;font-style:normal;font-variant:normal;font-weight:normal;font-stretch:normal;text-align:center;line-height:100%;writing-mode:lr-tb;text-anchor:middle;fill:#000000;fill-opacity:1;stroke:none;stroke-width:1px;stroke-linecap:butt;stroke-linejoin:miter;stroke-opacity:1;font-family:Verdana"
       x="465.1409"
       y="-215.63469"
       id="text8147"
       sodipodi:linespacing="100%"
       transform="matrix(0,1,-1,0,0,0)"><tspan
         sodipodi:role="line"
         x="465.1409"
         y="-215.63469"
         id="tspan4213">Zikos</tspan></text>
    <text
       xml:space="preserve"
       style="font-size:16px;font-style:normal;font-variant:normal;font-weight:normal;font-stretch:normal;text-align:center;line-height:100%;writing-mode:lr-tb;text-anchor:middle;fill:#000000;fill-opacity:1;stroke:none;stroke-width:1px;stroke-linecap:butt;stroke-linejoin:miter;stroke-opacity:1;font-family:Verdana"
       x="218.78609"
       y="-216.34451"
       id="text8151"
       sodipodi:linespacing="100%"
       transform="matrix(0,1,-1,0,0,0)"><tspan
         sodipodi:role="line"
         x="218.78609"
         y="-216.34451"
         id="tspan4215">Cissé</tspan></text>
    <text
       xml:space="preserve"
       style="font-size:16px;font-style:normal;font-variant:normal;font-weight:normal;font-stretch:normal;text-align:center;line-height:100%;writing-mode:lr-tb;text-anchor:middle;fill:#000000;fill-opacity:1;stroke:none;stroke-width:1px;stroke-linecap:butt;stroke-linejoin:miter;stroke-opacity:1;font-family:Verdana"
       x="339.04349"
       y="-216.92825"
       id="text8155"
       sodipodi:linespacing="100%"
       transform="matrix(0,1,-1,0,0,0)"><tspan
         sodipodi:role="line"
         x="339.04349"
         y="-216.92825"
         id="tspan4211">Bernardi</tspan></text>
    <g
       id="use8159"
       transform="matrix(0.588968,0,0,0.581043,266.38154,69.305744)"
       style="fill:#ffffff;fill-opacity:1">
      <path
         sodipodi:nodetypes="cccccccccccccc"
         id="path2293"
         d="M -112.72276,230.81533 L -102.9797,245.04448 L -102.9797,250.24466 L -113.07606,260.28506 L -102.9797,270.24466 L -102.9797,275.44484 L -113.0656,290.04522 L -122.67024,285.47396 L -117.9797,275.44484 L -152.92293,275.33056 L -152.80864,245.15876 L -117.9797,245.15876 L -122.4942,235.3866 L -112.72276,230.81533 z "
         style="fill:#ffffff;fill-opacity:1;fill-rule:evenodd;stroke:#000000;stroke-width:1px;stroke-linecap:butt;stroke-linejoin:miter;stroke-opacity:1" />
      <path
         id="path2295"
         d="M -102.9797,250.24466 C -104.9797,260.24466 -104.9797,260.24466 -104.9797,260.24466 L -102.9797,270.24466"
         style="fill:#ffffff;fill-opacity:1;fill-rule:evenodd;stroke:#000000;stroke-width:1px;stroke-linecap:butt;stroke-linejoin:miter;stroke-opacity:1" />
    </g>
    <g
       id="use8161"
       transform="matrix(0.588968,0,0,0.581043,266.48305,314.64387)"
       style="fill:#ffffff;fill-opacity:1">
      <path
         sodipodi:nodetypes="cccccccccccccc"
         id="path2299"
         d="M -112.72276,230.81533 L -102.9797,245.04448 L -102.9797,250.24466 L -113.07606,260.28506 L -102.9797,270.24466 L -102.9797,275.44484 L -113.0656,290.04522 L -122.67024,285.47396 L -117.9797,275.44484 L -152.92293,275.33056 L -152.80864,245.15876 L -117.9797,245.15876 L -122.4942,235.3866 L -112.72276,230.81533 z "
         style="fill:#ffffff;fill-opacity:1;fill-rule:evenodd;stroke:#000000;stroke-width:1px;stroke-linecap:butt;stroke-linejoin:miter;stroke-opacity:1" />
      <path
         id="path2301"
         d="M -102.9797,250.24466 C -104.9797,260.24466 -104.9797,260.24466 -104.9797,260.24466 L -102.9797,270.24466"
         style="fill:#ffffff;fill-opacity:1;fill-rule:evenodd;stroke:#000000;stroke-width:1px;stroke-linecap:butt;stroke-linejoin:miter;stroke-opacity:1" />
    </g>
    <text
       xml:space="preserve"
       style="font-size:16px;font-style:normal;font-variant:normal;font-weight:normal;font-stretch:normal;text-align:center;line-height:100%;writing-mode:lr-tb;text-anchor:middle;fill:#000000;fill-opacity:1;stroke:none;stroke-width:1px;stroke-linecap:butt;stroke-linejoin:miter;stroke-opacity:1;font-family:Verdana"
       x="531.17438"
       y="-293.41617"
       id="text8163"
       sodipodi:linespacing="100%"
       transform="matrix(0,1,-1,0,0,0)"><tspan
         sodipodi:role="line"
         x="531.17438"
         y="-293.41617"
         id="tspan4223"
         style="font-size:16px;font-style:normal;font-variant:normal;font-weight:normal;font-stretch:normal;text-align:center;line-height:100%;writing-mode:lr-tb;text-anchor:middle;font-family:Verdana">Evra</tspan></text>
    <text
       xml:space="preserve"
       style="font-size:16px;font-style:normal;font-variant:normal;font-weight:normal;font-stretch:normal;text-align:center;line-height:100%;writing-mode:lr-tb;text-anchor:middle;fill:#000000;fill-opacity:1;stroke:none;stroke-width:1px;stroke-linecap:butt;stroke-linejoin:miter;stroke-opacity:1;font-family:Verdana"
       x="401.68988"
       y="-310.55292"
       id="text8167"
       sodipodi:linespacing="100%"
       transform="matrix(0,1,-1,0,0,0)"><tspan
         sodipodi:role="line"
         x="401.68988"
         y="-310.55292"
         id="tspan4221">Givet</tspan></text>
    <text
       xml:space="preserve"
       style="font-size:16px;font-style:normal;font-variant:normal;font-weight:normal;font-stretch:normal;text-align:center;line-height:100%;writing-mode:lr-tb;text-anchor:middle;fill:#000000;fill-opacity:1;stroke:none;stroke-width:1px;stroke-linecap:butt;stroke-linejoin:miter;stroke-opacity:1;font-family:Verdana"
       x="280.55707"
       y="-310.93961"
       id="text8173"
       sodipodi:linespacing="100%"
       transform="matrix(0,1,-1,0,0,0)"><tspan
         sodipodi:role="line"
         x="280.55707"
         y="-310.93961"
         id="tspan4217">Rodriguez</tspan></text>
    <g
       id="use8177"
       transform="matrix(0.588968,0,0,0.581043,355.80126,130.01551)"
       style="fill:#ffffff;fill-opacity:1">
      <path
         sodipodi:nodetypes="cccccccccccccc"
         id="path2305"
         d="M -112.72276,230.81533 L -102.9797,245.04448 L -102.9797,250.24466 L -113.07606,260.28506 L -102.9797,270.24466 L -102.9797,275.44484 L -113.0656,290.04522 L -122.67024,285.47396 L -117.9797,275.44484 L -152.92293,275.33056 L -152.80864,245.15876 L -117.9797,245.15876 L -122.4942,235.3866 L -112.72276,230.81533 z "
         style="fill:#ffffff;fill-opacity:1;fill-rule:evenodd;stroke:#000000;stroke-width:1px;stroke-linecap:butt;stroke-linejoin:miter;stroke-opacity:1" />
      <path
         id="path2307"
         d="M -102.9797,250.24466 C -104.9797,260.24466 -104.9797,260.24466 -104.9797,260.24466 L -102.9797,270.24466"
         style="fill:#ffffff;fill-opacity:1;fill-rule:evenodd;stroke:#000000;stroke-width:1px;stroke-linecap:butt;stroke-linejoin:miter;stroke-opacity:1" />
    </g>
    <g
       style="opacity:1;fill:#ffffff;fill-opacity:1"
       transform="matrix(0.588968,0,0,0.581043,355.70076,250.47614)"
       id="use8179">
      <path
         style="fill:#ffffff;fill-opacity:1;fill-rule:evenodd;stroke:#000000;stroke-width:1px;stroke-linecap:butt;stroke-linejoin:miter;stroke-opacity:1"
         d="M -112.72276,230.81533 L -102.9797,245.04448 L -102.9797,250.24466 L -113.07606,260.28506 L -102.9797,270.24466 L -102.9797,275.44484 L -113.0656,290.04522 L -122.67024,285.47396 L -117.9797,275.44484 L -152.92293,275.33056 L -152.80864,245.15876 L -117.9797,245.15876 L -122.4942,235.3866 L -112.72276,230.81533 z "
         id="path1518"
         sodipodi:nodetypes="cccccccccccccc" />
      <path
         style="fill:#ffffff;fill-opacity:1;fill-rule:evenodd;stroke:#000000;stroke-width:1px;stroke-linecap:butt;stroke-linejoin:miter;stroke-opacity:1"
         d="M -102.9797,250.24466 C -104.9797,260.24466 -104.9797,260.24466 -104.9797,260.24466 L -102.9797,270.24466"
         id="path1520" />
    </g>
    <g
       style="font-size:27.35079765px;font-style:normal;font-variant:normal;font-weight:normal;font-stretch:normal;text-align:center;line-height:100%;writing-mode:lr-tb;text-anchor:middle;fill:#ffffff;fill-opacity:1;font-family:Verdana"
       transform="matrix(0.588968,0,0,0.581043,338.78511,381.42352)"
       id="use8181">
      <path
         style="font-size:27.35079765px;font-style:normal;font-variant:normal;font-weight:normal;font-stretch:normal;text-align:center;line-height:100%;writing-mode:lr-tb;text-anchor:middle;fill:#ffffff;fill-opacity:1;fill-rule:evenodd;stroke:#000000;stroke-width:1px;stroke-linecap:butt;stroke-linejoin:miter;stroke-opacity:1;font-family:Verdana"
         d="M -112.72276,230.81533 L -102.9797,245.04448 L -102.9797,250.24466 L -113.07606,260.28506 L -102.9797,270.24466 L -102.9797,275.44484 L -113.0656,290.04522 L -122.67024,285.47396 L -117.9797,275.44484 L -152.92293,275.33056 L -152.80864,245.15876 L -117.9797,245.15876 L -122.4942,235.3866 L -112.72276,230.81533 z "
         id="path1530"
         sodipodi:nodetypes="cccccccccccccc" />
      <path
         style="font-size:27.35079765px;font-style:normal;font-variant:normal;font-weight:normal;font-stretch:normal;text-align:center;line-height:100%;writing-mode:lr-tb;text-anchor:middle;fill:#ffffff;fill-opacity:1;fill-rule:evenodd;stroke:#000000;stroke-width:1px;stroke-linecap:butt;stroke-linejoin:miter;stroke-opacity:1;font-family:Verdana"
         d="M -102.9797,250.24466 C -104.9797,260.24466 -104.9797,260.24466 -104.9797,260.24466 L -102.9797,270.24466"
         id="path1532" />
    </g>
    <g
       style="fill:#ffffff;fill-opacity:1"
       transform="matrix(0.588968,0,0,0.581043,339.1804,1.423496)"
       id="use8201">
      <path
         style="fill:#ffffff;fill-opacity:1;fill-rule:evenodd;stroke:#000000;stroke-width:1px;stroke-linecap:butt;stroke-linejoin:miter;stroke-opacity:1"
         d="M -112.72276,230.81533 L -102.9797,245.04448 L -102.9797,250.24466 L -113.07606,260.28506 L -102.9797,270.24466 L -102.9797,275.44484 L -113.0656,290.04522 L -122.67024,285.47396 L -117.9797,275.44484 L -152.92293,275.33056 L -152.80864,245.15876 L -117.9797,245.15876 L -122.4942,235.3866 L -112.72276,230.81533 z "
         id="path1500"
         sodipodi:nodetypes="cccccccccccccc" />
      <path
         style="fill:#ffffff;fill-opacity:1;fill-rule:evenodd;stroke:#000000;stroke-width:1px;stroke-linecap:butt;stroke-linejoin:miter;stroke-opacity:1"
         d="M -102.9797,250.24466 C -104.9797,260.24466 -104.9797,260.24466 -104.9797,260.24466 L -102.9797,270.24466"
         id="path1502" />
    </g>
    <g
       id="g1461"
       style="fill:#ff9955;fill-opacity:1;fill-rule:nonzero">
      <path
         sodipodi:nodetypes="cccccccccccccc"
         id="path8203"
         d="M 356.81981,324.08832 L 362.47014,332.34027 L 362.47014,335.35603 L 356.61492,341.17879 L 362.47014,346.95469 L 362.47014,349.97044 L 356.62099,358.43768 L 351.05094,355.78666 L 353.77114,349.97044 L 333.50641,349.90417 L 333.57269,332.40655 L 353.77114,332.40655 L 351.15303,326.73935 L 356.81981,324.08832 z "
         style="fill:#ff9955;fill-opacity:1;fill-rule:nonzero;stroke:#000000;stroke-width:0.57993299px;stroke-linecap:butt;stroke-linejoin:miter;stroke-opacity:1" />
      <path
         id="path8205"
         d="M 362.47014,335.35603 C 361.31027,341.15536 361.31027,341.15536 361.31027,341.15536 L 362.47014,346.95469"
         style="fill:#ff9955;fill-opacity:1;fill-rule:nonzero;stroke:#000000;stroke-width:0.57993299px;stroke-linecap:butt;stroke-linejoin:miter;stroke-opacity:1" />
    </g>
    <text
       xml:space="preserve"
       style="font-size:16px;font-style:normal;font-variant:normal;font-weight:normal;font-stretch:normal;text-align:center;line-height:100%;writing-mode:lr-tb;text-anchor:middle;fill:#000000;fill-opacity:1;stroke:none;stroke-width:1px;stroke-linecap:butt;stroke-linejoin:miter;stroke-opacity:1;font-family:Verdana"
       x="282.32877"
       y="216.40572"
       id="text4159"
       sodipodi:linespacing="100%"
       transform="matrix(0,1,-1,0,0,0)"><tspan
         sodipodi:role="line"
         x="282.32877"
         y="216.40572"
         id="tspan4163">Carvalho</tspan></text>
    <text
       xml:space="preserve"
       style="font-size:16px;font-style:normal;font-variant:normal;font-weight:normal;font-stretch:normal;text-align:center;line-height:100%;writing-mode:lr-tb;text-anchor:middle;fill:#000000;fill-opacity:1;stroke:none;stroke-width:1px;stroke-linecap:butt;stroke-linejoin:miter;stroke-opacity:1;font-family:Verdana"
       x="397.84009"
       y="216.15097"
       id="text4167"
       sodipodi:linespacing="100%"
       transform="matrix(0,1,-1,0,0,0)"><tspan
         sodipodi:role="line"
         x="397.84009"
         y="216.15097"
         id="tspan4171">Costa</tspan></text>
    <text
       xml:space="preserve"
       style="font-size:16px;font-style:normal;font-variant:normal;font-weight:normal;font-stretch:normal;text-align:center;line-height:100%;writing-mode:lr-tb;text-anchor:middle;fill:#000000;fill-opacity:1;stroke:none;stroke-width:1px;stroke-linecap:butt;stroke-linejoin:miter;stroke-opacity:1;font-family:Verdana"
       x="339.99954"
       y="-376.26248"
       id="text4181"
       sodipodi:linespacing="100%"
       transform="matrix(0,1,-1,0,0,0)"><tspan
         sodipodi:role="line"
         x="339.99954"
         y="-376.26248"
         id="tspan4185">Roma</tspan></text>
    <text
       xml:space="preserve"
       style="font-size:16px;font-style:normal;font-variant:normal;font-weight:normal;font-stretch:normal;text-align:center;line-height:100%;writing-mode:lr-tb;text-anchor:middle;fill:#000000;fill-opacity:1;stroke:none;stroke-width:1px;stroke-linecap:butt;stroke-linejoin:miter;stroke-opacity:1;font-family:Verdana"
       x="151.78064"
       y="-293.89514"
       id="text4187"
       sodipodi:linespacing="100%"
       transform="matrix(0,1,-1,0,0,0)"><tspan
         sodipodi:role="line"
         x="151.78064"
         y="-293.89514"
         id="tspan4191">Ibarra</tspan></text>
    <g
       style="fill:#0054dc;fill-opacity:1"
       transform="matrix(0.588968,0,0,0.581043,-98.543257,383.49607)"
       id="g8358">
      <path
         style="fill:#0054dc;fill-opacity:1;fill-rule:evenodd;stroke:#000000;stroke-width:1px;stroke-linecap:butt;stroke-linejoin:miter;stroke-opacity:1"
         d="M -112.72276,230.81533 L -102.9797,245.04448 L -102.9797,250.24466 L -113.07606,260.28506 L -102.9797,270.24466 L -102.9797,275.44484 L -113.0656,290.04522 L -122.67024,285.47396 L -117.9797,275.44484 L -152.92293,275.33056 L -152.80864,245.15876 L -117.9797,245.15876 L -122.4942,235.3866 L -112.72276,230.81533 z "
         id="path8360"
         sodipodi:nodetypes="cccccccccccccc" />
      <path
         style="fill:#0054dc;fill-opacity:1;fill-rule:evenodd;stroke:#000000;stroke-width:1px;stroke-linecap:butt;stroke-linejoin:miter;stroke-opacity:1"
         d="M -102.9797,250.24466 C -104.9797,260.24466 -104.9797,260.24466 -104.9797,260.24466 L -102.9797,270.24466"
         id="path8362" />
    </g>
    <text
       xml:space="preserve"
       style="font-size:16px;font-style:normal;font-variant:normal;font-weight:normal;font-stretch:normal;text-align:center;line-height:100%;writing-mode:lr-tb;text-anchor:middle;fill:#000000;fill-opacity:1;stroke:none;stroke-width:1px;stroke-linecap:butt;stroke-linejoin:miter;stroke-opacity:1;font-family:Verdana"
       x="532.94421"
       y="203.76877"
       id="text8364"
       sodipodi:linespacing="100%"
       transform="matrix(0,1,-1,0,0,0)"><tspan
         sodipodi:role="line"
         x="532.94421"
         y="203.76877"
         id="tspan8366">Ferreira</tspan></text>
    <g
       style="fill:#0054dc;fill-opacity:1;stroke:#000000;stroke-opacity:1;stroke-width:1.00001354;stroke-miterlimit:4;stroke-dasharray:none"
       transform="matrix(0.588968,0,0,0.581043,-97.978868,-3.7695033)"
       id="g8368">
      <path
         style="fill:#0054dc;fill-opacity:1;fill-rule:evenodd;stroke:#000000;stroke-width:1.00001354;stroke-linecap:butt;stroke-linejoin:miter;stroke-opacity:1;stroke-miterlimit:4;stroke-dasharray:none"
         d="M -112.72276,230.81533 L -102.9797,245.04448 L -102.9797,250.24466 L -113.07606,260.28506 L -102.9797,270.24466 L -102.9797,275.44484 L -113.0656,290.04522 L -122.67024,285.47396 L -117.9797,275.44484 L -152.92293,275.33056 L -152.80864,245.15876 L -117.9797,245.15876 L -122.4942,235.3866 L -112.72276,230.81533 z "
         id="path8370"
         sodipodi:nodetypes="cccccccccccccc" />
      <path
         style="fill:#0054dc;fill-opacity:1;fill-rule:evenodd;stroke:#000000;stroke-width:1.00001354;stroke-linecap:butt;stroke-linejoin:miter;stroke-opacity:1;stroke-miterlimit:4;stroke-dasharray:none"
         d="M -102.9797,250.24466 C -104.9797,260.24466 -104.9797,260.24466 -104.9797,260.24466 L -102.9797,270.24466"
         id="path8372" />
    </g>
    <text
       xml:space="preserve"
       style="font-size:16px;font-style:normal;font-variant:normal;font-weight:normal;font-stretch:normal;text-align:center;line-height:100%;writing-mode:lr-tb;text-anchor:middle;fill:#000000;fill-opacity:1;stroke:none;stroke-width:1px;stroke-linecap:butt;stroke-linejoin:miter;stroke-opacity:1;font-family:Verdana"
       x="147.19437"
       y="204.72008"
       id="text8374"
       sodipodi:linespacing="100%"
       transform="matrix(0,1,-1,0,0,0)"><tspan
         sodipodi:role="line"
         x="147.19437"
         y="204.72008"
         id="tspan8376">Valente</tspan></text>
    <g
       style="fill:#0054dc;fill-opacity:1"
       transform="matrix(0.588968,0,0,0.581043,89.307988,246.42924)"
       id="g8436">
      <path
         style="fill:#0054dc;fill-opacity:1;fill-rule:evenodd;stroke:#000000;stroke-width:1px;stroke-linecap:butt;stroke-linejoin:miter;stroke-opacity:1"
         d="M -112.72276,230.81533 L -102.9797,245.04448 L -102.9797,250.24466 L -113.07606,260.28506 L -102.9797,270.24466 L -102.9797,275.44484 L -113.0656,290.04522 L -122.67024,285.47396 L -117.9797,275.44484 L -152.92293,275.33056 L -152.80864,245.15876 L -117.9797,245.15876 L -122.4942,235.3866 L -112.72276,230.81533 z "
         id="path8438"
         sodipodi:nodetypes="cccccccccccccc" />
      <path
         style="fill:#0054dc;fill-opacity:1;fill-rule:evenodd;stroke:#000000;stroke-width:1px;stroke-linecap:butt;stroke-linejoin:miter;stroke-opacity:1"
         d="M -102.9797,250.24466 C -104.9797,260.24466 -104.9797,260.24466 -104.9797,260.24466 L -102.9797,270.24466"
         id="path8440" />
    </g>
    <use
       x="0"
       y="0"
       xlink:href="#use8001"
       id="use8442"
       transform="translate(198.71769,-113.62628)"
       width="534"
       height="738"
       style="fill:#ecd300;fill-opacity:1" />
    <text
       xml:space="preserve"
       style="font-size:16px;font-style:normal;font-variant:normal;font-weight:normal;font-stretch:normal;text-align:center;line-height:100%;writing-mode:lr-tb;text-anchor:middle;fill:#000000;fill-opacity:1;stroke:none;stroke-width:1px;stroke-linecap:butt;stroke-linejoin:miter;stroke-opacity:1;font-family:Verdana"
       x="281.88177"
       y="17.687996"
       id="text8444"
       sodipodi:linespacing="100%"
       transform="matrix(0,1,-1,0,0,0)"><tspan
         sodipodi:role="line"
         x="281.88177"
         y="17.687996"
         id="tspan8446">Derlei</tspan></text>
    <text
       xml:space="preserve"
       style="font-size:16px;font-style:normal;font-variant:normal;font-weight:normal;font-stretch:normal;text-align:center;line-height:100%;writing-mode:lr-tb;text-anchor:middle;fill:#000000;fill-opacity:1;stroke:none;stroke-width:1px;stroke-linecap:butt;stroke-linejoin:miter;stroke-opacity:1;font-family:Verdana"
       x="397.3931"
       y="17.433235"
       id="text8448"
       sodipodi:linespacing="100%"
       transform="matrix(0,1,-1,0,0,0)"><tspan
         sodipodi:role="line"
         x="397.3931"
         y="17.433235"
         id="tspan8450">Alberto</tspan></text>
    <g
       style="fill:#0054dc;fill-opacity:1"
       transform="matrix(0.588968,0,0,0.581043,-9.5424961,314.53096)"
       id="g8452">
      <path
         style="fill:#0054dc;fill-opacity:1;fill-rule:evenodd;stroke:#000000;stroke-width:1px;stroke-linecap:butt;stroke-linejoin:miter;stroke-opacity:1"
         d="M -112.72276,230.81533 L -102.9797,245.04448 L -102.9797,250.24466 L -113.07606,260.28506 L -102.9797,270.24466 L -102.9797,275.44484 L -113.0656,290.04522 L -122.67024,285.47396 L -117.9797,275.44484 L -152.92293,275.33056 L -152.80864,245.15876 L -117.9797,245.15876 L -122.4942,235.3866 L -112.72276,230.81533 z "
         id="path8454"
         sodipodi:nodetypes="cccccccccccccc" />
      <path
         style="fill:#0054dc;fill-opacity:1;fill-rule:evenodd;stroke:#000000;stroke-width:1px;stroke-linecap:butt;stroke-linejoin:miter;stroke-opacity:1"
         d="M -102.9797,250.24466 C -104.9797,260.24466 -104.9797,260.24466 -104.9797,260.24466 L -102.9797,270.24466"
         id="path8456" />
    </g>
    <text
       xml:space="preserve"
       style="font-size:16px;font-style:normal;font-variant:normal;font-weight:normal;font-stretch:normal;text-align:center;line-height:100%;writing-mode:lr-tb;text-anchor:middle;fill:#000000;fill-opacity:1;stroke:none;stroke-width:1px;stroke-linecap:butt;stroke-linejoin:miter;stroke-opacity:1;font-family:Verdana"
       x="465.49484"
       y="116.28372"
       id="text8458"
       sodipodi:linespacing="100%"
       transform="matrix(0,1,-1,0,0,0)"><tspan
         sodipodi:role="line"
         x="465.49484"
         y="116.28372"
         id="tspan8460">Mendes</tspan></text>
    <g
       style="fill:#0054dc;fill-opacity:1"
       transform="matrix(0.588968,0,0,0.581043,-9.5424951,69.742728)"
       id="g8462">
      <path
         style="fill:#0054dc;fill-opacity:1;fill-rule:evenodd;stroke:#000000;stroke-width:1px;stroke-linecap:butt;stroke-linejoin:miter;stroke-opacity:1"
         d="M -112.72276,230.81533 L -102.9797,245.04448 L -102.9797,250.24466 L -113.07606,260.28506 L -102.9797,270.24466 L -102.9797,275.44484 L -113.0656,290.04522 L -122.67024,285.47396 L -117.9797,275.44484 L -152.92293,275.33056 L -152.80864,245.15876 L -117.9797,245.15876 L -122.4942,235.3866 L -112.72276,230.81533 z "
         id="path8464"
         sodipodi:nodetypes="cccccccccccccc" />
      <path
         style="fill:#0054dc;fill-opacity:1;fill-rule:evenodd;stroke:#000000;stroke-width:1px;stroke-linecap:butt;stroke-linejoin:miter;stroke-opacity:1"
         d="M -102.9797,250.24466 C -104.9797,260.24466 -104.9797,260.24466 -104.9797,260.24466 L -102.9797,270.24466"
         id="path8466" />
    </g>
    <text
       xml:space="preserve"
       style="font-size:16px;font-style:normal;font-variant:normal;font-weight:normal;font-stretch:normal;text-align:center;line-height:100%;writing-mode:lr-tb;text-anchor:middle;fill:#000000;fill-opacity:1;stroke:none;stroke-width:1px;stroke-linecap:butt;stroke-linejoin:miter;stroke-opacity:1;font-family:Verdana"
       x="220.7066"
       y="116.28371"
       id="text8468"
       sodipodi:linespacing="100%"
       transform="matrix(0,1,-1,0,0,0)"><tspan
         sodipodi:role="line"
         x="220.7066"
         y="116.28371"
         id="tspan8470">Maniche</tspan></text>
    <g
       transform="matrix(0.588968,0,0,0.581043,174.10594,35.678801)"
       id="g9482"
       style="fill:#ffffff;fill-opacity:1">
      <path
         style="fill:#ffffff;fill-opacity:1;fill-rule:evenodd;stroke:#000000;stroke-width:1px;stroke-linecap:butt;stroke-linejoin:miter;stroke-opacity:1"
         d="M -112.72276,230.81533 L -102.9797,245.04448 L -102.9797,250.24466 L -113.07606,260.28506 L -102.9797,270.24466 L -102.9797,275.44484 L -113.0656,290.04522 L -122.67024,285.47396 L -117.9797,275.44484 L -152.92293,275.33056 L -152.80864,245.15876 L -117.9797,245.15876 L -122.4942,235.3866 L -112.72276,230.81533 z "
         id="path9484"
         sodipodi:nodetypes="cccccccccccccc" />
      <path
         style="fill:#ffffff;fill-opacity:1;fill-rule:evenodd;stroke:#000000;stroke-width:1px;stroke-linecap:butt;stroke-linejoin:miter;stroke-opacity:1"
         d="M -102.9797,250.24466 C -104.9797,260.24466 -104.9797,260.24466 -104.9797,260.24466 L -102.9797,270.24466"
         id="path9486" />
    </g>
    <text
       xml:space="preserve"
       style="font-size:16px;font-style:normal;font-variant:normal;font-weight:normal;font-stretch:normal;text-align:center;line-height:100%;writing-mode:lr-tb;text-anchor:middle;fill:#000000;fill-opacity:1;stroke:none;stroke-width:1px;stroke-linecap:butt;stroke-linejoin:miter;stroke-opacity:1;font-family:Verdana"
       x="186.36821"
       y="-124.42391"
       id="text9488"
       sodipodi:linespacing="100%"
       transform="matrix(0,1,-1,0,0,0)"><tspan
         sodipodi:role="line"
         x="186.36821"
         y="-124.42391"
         id="tspan9490">Giuly</tspan></text>
    <text
       xml:space="preserve"
       style="font-size:16px;font-style:normal;font-variant:normal;font-weight:normal;font-stretch:normal;text-align:center;line-height:100%;writing-mode:lr-tb;text-anchor:middle;fill:#000000;fill-opacity:1;stroke:none;stroke-width:1px;stroke-linecap:butt;stroke-linejoin:miter;stroke-opacity:1;font-family:Verdana"
       x="499.25116"
       y="-125.66252"
       id="text9492"
       sodipodi:linespacing="100%"
       transform="matrix(0,1,-1,0,0,0)"><tspan
         sodipodi:role="line"
         x="499.25116"
         y="-125.66252"
         id="tspan9494">Rothen</tspan></text>
    <text
       xml:space="preserve"
       style="font-size:16px;font-style:normal;font-variant:normal;font-weight:normal;font-stretch:normal;text-align:center;line-height:100%;writing-mode:lr-tb;text-anchor:middle;fill:#000000;fill-opacity:1;stroke:none;stroke-width:1px;stroke-linecap:butt;stroke-linejoin:miter;stroke-opacity:1;font-family:Verdana"
       x="340.98325"
       y="-98.766304"
       id="text9496"
       sodipodi:linespacing="100%"
       transform="matrix(0,1,-1,0,0,0)"><tspan
         sodipodi:role="line"
         x="340.98325"
         y="-98.766304"
         id="tspan9498">Morientes</tspan></text>
    <g
       id="g9500"
       transform="matrix(0.588968,0,0,0.581043,148.93295,189.68383)"
       style="fill:#ffffff;fill-opacity:1">
      <path
         sodipodi:nodetypes="cccccccccccccc"
         id="path9502"
         d="M -112.72276,230.81533 L -102.9797,245.04448 L -102.9797,250.24466 L -113.07606,260.28506 L -102.9797,270.24466 L -102.9797,275.44484 L -113.0656,290.04522 L -122.67024,285.47396 L -117.9797,275.44484 L -152.92293,275.33056 L -152.80864,245.15876 L -117.9797,245.15876 L -122.4942,235.3866 L -112.72276,230.81533 z "
         style="fill:#ffffff;fill-opacity:1;fill-rule:evenodd;stroke:#000000;stroke-width:1px;stroke-linecap:butt;stroke-linejoin:miter;stroke-opacity:1" />
      <path
         id="path9504"
         d="M -102.9797,250.24466 C -104.9797,260.24466 -104.9797,260.24466 -104.9797,260.24466 L -102.9797,270.24466"
         style="fill:#ffffff;fill-opacity:1;fill-rule:evenodd;stroke:#000000;stroke-width:1px;stroke-linecap:butt;stroke-linejoin:miter;stroke-opacity:1" />
    </g>
    <g
       style="opacity:1;fill:#ffffff;fill-opacity:1"
       transform="matrix(0.588968,0,0,0.581043,173.84177,348.03737)"
       id="g9506">
      <path
         style="fill:#ffffff;fill-opacity:1;fill-rule:evenodd;stroke:#000000;stroke-width:1px;stroke-linecap:butt;stroke-linejoin:miter;stroke-opacity:1"
         d="M -112.72276,230.81533 L -102.9797,245.04448 L -102.9797,250.24466 L -113.07606,260.28506 L -102.9797,270.24466 L -102.9797,275.44484 L -113.0656,290.04522 L -122.67024,285.47396 L -117.9797,275.44484 L -152.92293,275.33056 L -152.80864,245.15876 L -117.9797,245.15876 L -122.4942,235.3866 L -112.72276,230.81533 z "
         id="path9508"
         sodipodi:nodetypes="cccccccccccccc" />
      <path
         style="fill:#ffffff;fill-opacity:1;fill-rule:evenodd;stroke:#000000;stroke-width:1px;stroke-linecap:butt;stroke-linejoin:miter;stroke-opacity:1"
         d="M -102.9797,250.24466 C -104.9797,260.24466 -104.9797,260.24466 -104.9797,260.24466 L -102.9797,270.24466"
         id="path9510" />
    </g>
    <g
       id="g9512"
       style="fill:#0054dc;fill-opacity:1"
       transform="translate(152.54629,-0.4294053)">
      <path
         sodipodi:nodetypes="cccccccccccccc"
         id="path9514"
         d="M -267.79597,322.90416 L -262.14564,331.15611 L -262.14564,334.17187 L -268.00086,339.99463 L -262.14564,345.77053 L -262.14564,348.78628 L -267.99479,357.25352 L -273.56484,354.6025 L -270.84464,348.78628 L -291.10937,348.72001 L -291.04309,331.22239 L -270.84464,331.22239 L -273.46275,325.55519 L -267.79597,322.90416 z "
         style="fill:#0054dc;fill-opacity:1;fill-rule:evenodd;stroke:#000000;stroke-width:0.57993299px;stroke-linecap:butt;stroke-linejoin:miter;stroke-opacity:1" />
      <path
         id="path9516"
         d="M -262.14564,334.17187 C -263.30551,339.9712 -263.30551,339.9712 -263.30551,339.9712 L -262.14564,345.77053"
         style="fill:#0054dc;fill-opacity:1;fill-rule:evenodd;stroke:#000000;stroke-width:0.57993299px;stroke-linecap:butt;stroke-linejoin:miter;stroke-opacity:1" />
    </g>
    <text
       xml:space="preserve"
       style="font-size:16px;font-style:normal;font-variant:normal;font-weight:normal;font-stretch:normal;text-align:center;line-height:100%;writing-mode:lr-tb;text-anchor:middle;fill:#000000;fill-opacity:1;stroke:none;stroke-width:1px;stroke-linecap:butt;stroke-linejoin:miter;stroke-opacity:1;font-family:Verdana"
       x="338.88947"
       y="161.3161"
       id="text9518"
       sodipodi:linespacing="100%"
       transform="matrix(0,1,-1,0,0,0)"><tspan
         sodipodi:role="line"
         x="338.88947"
         y="161.3161"
         id="tspan9520">Costinha</tspan></text>
    <g
       id="g9522"
       style="fill:#0054dc;fill-opacity:1"
       transform="translate(229.84782,-0.4293974)">
      <path
         sodipodi:nodetypes="cccccccccccccc"
         id="path9524"
         d="M -267.79597,322.90416 L -262.14564,331.15611 L -262.14564,334.17187 L -268.00086,339.99463 L -262.14564,345.77053 L -262.14564,348.78628 L -267.99479,357.25352 L -273.56484,354.6025 L -270.84464,348.78628 L -291.10937,348.72001 L -291.04309,331.22239 L -270.84464,331.22239 L -273.46275,325.55519 L -267.79597,322.90416 z "
         style="fill:#0054dc;fill-opacity:1;fill-rule:evenodd;stroke:#000000;stroke-width:0.57993299px;stroke-linecap:butt;stroke-linejoin:miter;stroke-opacity:1" />
      <path
         id="path9526"
         d="M -262.14564,334.17187 C -263.30551,339.9712 -263.30551,339.9712 -263.30551,339.9712 L -262.14564,345.77053"
         style="fill:#0054dc;fill-opacity:1;fill-rule:evenodd;stroke:#000000;stroke-width:0.57993299px;stroke-linecap:butt;stroke-linejoin:miter;stroke-opacity:1" />
    </g>
    <text
       xml:space="preserve"
       style="font-size:16px;font-style:normal;font-variant:normal;font-weight:normal;font-stretch:normal;text-align:center;line-height:100%;writing-mode:lr-tb;text-anchor:middle;fill:#000000;fill-opacity:1;stroke:none;stroke-width:1px;stroke-linecap:butt;stroke-linejoin:miter;stroke-opacity:1;font-family:Verdana"
       x="338.88947"
       y="82.49884"
       id="text9528"
       sodipodi:linespacing="100%"
       transform="matrix(0,1,-1,0,0,0)"><tspan
         sodipodi:role="line"
         x="338.88947"
         y="82.49884"
         id="tspan9530">Deco</tspan></text>
  </g>
</svg>
