<?xml version="1.0" standalone="no"?>
<!DOCTYPE svg PUBLIC "-//W3C//DTD SVG 20010904//EN"
 "http://www.w3.org/TR/2001/REC-SVG-20010904/DTD/svg10.dtd">
<svg version="1.0" xmlns="http://www.w3.org/2000/svg"
 width="300.000000pt" height="216.000000pt" viewBox="0 0 300.000000 216.000000"
 preserveAspectRatio="xMidYMid meet">
<metadata>
Created by potrace 1.10, written by Peter Selinger 2001-2011
</metadata>
<g transform="translate(0.000000,216.000000) scale(0.100000,-0.100000)"
fill="#000000" stroke="none">
<path d="M2195 2001 c-6 -5 -53 -32 -105 -61 -120 -66 -351 -218 -498 -327
-62 -47 -117 -83 -123 -81 -15 5 95 106 196 181 69 51 259 170 287 179 15 5
-3 38 -21 38 -17 0 -287 -175 -546 -353 -208 -144 -440 -317 -589 -439 -111
-91 -136 -108 -136 -92 0 4 35 45 78 93 183 202 193 219 151 241 -36 20 -177
-58 -283 -158 -48 -45 -55 -59 -32 -68 8 -3 34 15 62 43 50 49 183 143 203
143 21 0 11 -17 -57 -91 -110 -120 -242 -277 -242 -287 0 -5 7 -15 15 -22 24
-20 62 3 205 121 158 132 621 479 638 479 8 0 -11 -28 -42 -62 -31 -35 -56
-71 -56 -81 0 -26 28 -32 55 -11 235 189 650 482 664 468 8 -8 -55 -61 -162
-136 -134 -94 -134 -94 -119 -110 10 -10 17 -10 35 2 12 8 42 25 66 37 39 20
47 21 60 9 12 -13 20 -12 64 10 30 16 58 23 72 20 13 -3 41 0 63 8 47 17 118
24 115 12 -1 -4 -62 -34 -135 -66 -590 -255 -1024 -496 -1368 -756 -144 -109
-154 -120 -125 -144 12 -10 29 -8 87 7 56 15 110 43 226 117 85 53 155 96 157
96 2 0 75 42 162 94 289 171 753 417 753 400 0 -4 -24 -32 -52 -63 -66 -71
-98 -134 -98 -193 0 -53 30 -88 75 -88 31 0 117 51 139 82 13 19 16 18 91 -21
153 -81 266 -178 306 -266 24 -51 24 -144 1 -210 -39 -112 -177 -274 -338
-396 -52 -40 -92 -74 -89 -77 9 -10 139 86 223 163 145 135 232 272 249 390
18 137 -110 292 -335 407 -74 37 -82 45 -77 65 3 15 -1 29 -15 43 -11 11 -20
22 -20 25 0 25 230 128 247 112 3 -4 -13 -27 -36 -52 -59 -64 -51 -69 12 -7
29 29 58 52 65 52 6 0 18 -13 27 -30 9 -17 24 -30 34 -30 25 0 142 92 164 129
38 64 -3 96 -68 54 -106 -68 -150 -87 -201 -88 -58 -1 -128 -32 -229 -100 -35
-23 -84 -54 -109 -69 -25 -15 -46 -31 -46 -36 0 -6 17 -10 38 -10 20 -1 50 -7
66 -13 l29 -13 -44 -32 c-48 -36 -75 -45 -110 -40 -22 3 -24 8 -22 51 2 73 92
206 165 243 19 10 28 21 24 30 -7 19 77 59 296 141 87 32 158 61 158 66 0 12
-18 8 -72 -18 -28 -14 -57 -25 -63 -25 -11 0 -213 -80 -390 -154 -241 -102
-602 -293 -975 -516 -208 -125 -294 -170 -320 -170 -19 0 -21 2 -9 16 52 63
466 333 729 476 224 121 391 201 665 319 171 72 314 136 319 140 5 5 5 14 -2
22 -10 11 -34 10 -149 -10 -76 -13 -156 -25 -178 -27 -22 -2 -61 -14 -88 -27
-33 -16 -50 -20 -58 -12 -7 7 8 24 52 56 160 119 278 222 276 241 -2 22 -18
31 -32 17z m305 -500 c0 -14 -49 -70 -72 -82 -34 -18 -32 -2 7 45 34 42 65 59
65 37z m-90 -28 c0 -5 -12 -21 -26 -37 -20 -22 -28 -26 -37 -17 -9 10 -5 18
18 37 31 24 45 30 45 17z m-370 -218 c0 -28 -11 -30 -55 -11 l-30 14 25 10
c43 18 60 15 60 -13z"/>
<path d="M1710 1293 c-24 -9 -40 -25 -35 -33 6 -10 78 15 83 29 4 11 -22 14
-48 4z"/>
<path d="M1623 1211 c-10 -10 -29 -24 -43 -31 -58 -28 -120 -76 -120 -92 0
-26 40 -23 146 8 115 34 134 38 134 28 -1 -5 -21 -22 -47 -38 -37 -24 -49 -27
-64 -18 -28 18 -30 15 -11 -17 16 -28 15 -30 -11 -67 -39 -57 -57 -118 -57
-191 0 -58 3 -68 29 -94 25 -24 38 -29 78 -29 57 0 93 9 93 22 0 5 -16 6 -37
1 -65 -13 -95 -8 -120 21 -75 87 35 338 163 372 12 3 40 0 64 -6 59 -16 120
-80 75 -80 -17 0 -69 -96 -60 -110 31 -50 113 88 87 145 -14 31 -80 65 -127
65 -39 0 -42 5 -18 32 34 38 -1 38 -126 -2 -68 -22 -127 -40 -132 -40 -26 0
-1 22 64 55 94 50 100 54 86 71 -15 19 -25 18 -46 -5z"/>
<path d="M1342 1078 c-22 -29 -23 -74 -2 -101 24 -31 45 -33 95 -13 39 17 50
43 13 31 -44 -14 -86 -17 -92 -6 -4 5 0 27 9 47 19 46 4 75 -23 42z"/>
<path d="M1155 975 c-5 -2 -27 -6 -47 -10 -66 -11 -41 -22 36 -17 91 6 121 -1
142 -32 14 -22 14 -27 0 -54 -25 -48 -106 -114 -274 -222 -280 -181 -436 -243
-452 -181 -7 30 -30 40 -30 14 0 -32 29 -63 59 -63 75 0 229 76 451 221 265
174 328 257 242 317 -26 19 -105 36 -127 27z"/>
<path d="M1747 923 c-9 -8 -9 -96 -1 -117 7 -19 35 -21 52 -4 18 18 15 33 -4
17 -24 -20 -36 7 -28 64 5 43 -2 58 -19 40z"/>
<path d="M1065 898 c-4 -9 -2 -40 4 -68 6 -29 9 -56 5 -61 -10 -17 -57 -9 -81
13 -13 12 -26 18 -30 14 -11 -11 45 -53 76 -58 60 -8 64 -3 56 75 -8 81 -19
113 -30 85z"/>
</g>
</svg>
